<svg xmlns="http://www.w3.org/2000/svg" xmlns:xlink="http://www.w3.org/1999/xlink" width="1080" zoomAndPan="magnify" viewBox="0 0 810 286.499991" height="382" preserveAspectRatio="xMidYMid meet" version="1.0"><defs><g/><clipPath id="32e0ff37a6"><path d="M 24.121094 0.101562 L 310 0.101562 L 310 286 L 24.121094 286 Z M 24.121094 0.101562 " clip-rule="nonzero"/></clipPath></defs><g clip-path="url(#32e0ff37a6)"><path fill="#0078f0" d="M 167.019531 0.101562 C 88.226562 0.101562 24.121094 64.199219 24.121094 143 C 24.121094 146.433594 26.90625 149.210938 30.335938 149.210938 L 73.824219 149.210938 C 77.253906 149.210938 80.039062 146.429688 80.039062 143 C 80.039062 94.960938 118.980469 56.019531 167.019531 56.019531 C 215.054688 56.019531 253.996094 94.960938 253.996094 143 C 253.996094 191.035156 215.054688 229.976562 167.019531 229.976562 L 167.019531 186.488281 C 167.019531 183.058594 164.234375 180.277344 160.804688 180.277344 L 117.316406 180.277344 C 113.886719 180.277344 111.101562 183.058594 111.101562 186.488281 L 111.101562 229.976562 L 80.039062 229.976562 L 80.039062 205.125 C 80.039062 201.699219 77.253906 198.914062 73.824219 198.914062 L 48.972656 198.914062 C 45.542969 198.914062 42.761719 201.699219 42.761719 205.125 L 42.761719 229.976562 C 42.761719 233.40625 45.542969 236.191406 48.972656 236.191406 L 73.824219 236.191406 L 73.824219 267.253906 C 73.824219 270.683594 76.609375 273.46875 80.039062 273.46875 L 111.101562 273.46875 C 114.53125 273.46875 117.316406 270.683594 117.316406 267.253906 L 117.316406 236.191406 L 160.804688 236.191406 L 160.804688 279.679688 C 160.804688 283.117188 163.589844 285.894531 167.019531 285.894531 C 245.808594 285.894531 309.914062 221.796875 309.914062 143 C 309.914062 64.199219 245.808594 0.101562 167.019531 0.101562 Z M 167.019531 0.101562 " fill-opacity="1" fill-rule="nonzero"/></g><g fill="#ffffff" fill-opacity="1"><g transform="translate(360.702724, 97.53315)"><g><path d="M 27.894531 -16.90625 L 27.894531 -84.523438 L 9.660156 -84.523438 L 9.660156 0 L 60.375 0 L 60.375 -16.90625 Z M 27.894531 -16.90625 "/></g></g></g><g fill="#ffffff" fill-opacity="1"><g transform="translate(423.692693, 97.53315)"><g><path d="M 8.453125 -73.898438 L 25.960938 -73.898438 L 25.960938 -90.199219 L 8.453125 -90.199219 Z M 8.453125 0 L 26.082031 0 L 26.082031 -65.203125 L 8.453125 -65.203125 Z M 8.453125 0 "/></g></g></g><g fill="#ffffff" fill-opacity="1"><g transform="translate(458.204462, 97.53315)"><g><path d="M 45.523438 -66.652344 C 36.707031 -66.652344 28.859375 -62.910156 23.90625 -57.113281 L 20.527344 -65.203125 L 8.453125 -65.203125 L 8.453125 0 L 26.082031 0 L 26.082031 -34.171875 C 26.082031 -44.675781 31.636719 -51.195312 40.691406 -51.195312 C 48.300781 -51.195312 52.042969 -46.488281 52.042969 -36.585938 L 52.042969 0 L 69.671875 0 L 69.671875 -39.484375 C 69.671875 -56.027344 60.375 -66.652344 45.523438 -66.652344 Z M 45.523438 -66.652344 "/></g></g></g><g fill="#ffffff" fill-opacity="1"><g transform="translate(535.554297, 97.53315)"><g><path d="M 68.222656 0 L 43.832031 -34.050781 L 65.929688 -65.203125 L 45.644531 -65.203125 L 26.082031 -36.222656 L 26.082031 -88.628906 L 8.453125 -88.628906 L 8.453125 0 L 26.082031 0 L 26.082031 -31.152344 L 46.851562 0 Z M 68.222656 0 "/></g></g></g><g fill="#ffffff" fill-opacity="1"><g transform="translate(603.250444, 97.53315)"><g><path d="M 71.722656 -32.722656 C 71.722656 -51.558594 57.960938 -67.015625 37.914062 -67.015625 C 18.59375 -67.015625 4.105469 -52.164062 4.105469 -32.601562 C 4.105469 -13.039062 18.714844 1.933594 37.914062 1.933594 C 53.128906 1.933594 65.566406 -7.125 70.277344 -21.371094 L 51.800781 -21.371094 C 49.144531 -16.664062 44.074219 -13.765625 37.914062 -13.765625 C 29.339844 -13.765625 23.546875 -18.714844 21.976562 -27.652344 L 71.363281 -27.652344 C 71.605469 -29.339844 71.722656 -31.03125 71.722656 -32.722656 Z M 37.914062 -51.921875 C 45.882812 -51.921875 51.558594 -47.574219 54.09375 -39.605469 L 22.460938 -39.605469 C 24.511719 -47.332031 30.066406 -51.921875 37.914062 -51.921875 Z M 37.914062 -51.921875 "/></g></g></g><g fill="#ffffff" fill-opacity="1"><g transform="translate(679.031554, 97.53315)"><g><path d="M 56.269531 -88.628906 L 56.269531 -61.582031 C 51.195312 -65.082031 45.160156 -67.015625 38.398438 -67.015625 C 18.59375 -67.015625 4.105469 -52.285156 4.105469 -32.480469 C 4.105469 -12.800781 18.59375 2.050781 38.398438 2.050781 C 46.367188 2.050781 53.371094 -0.722656 58.804688 -5.3125 L 60.855469 0.121094 L 73.898438 0.121094 L 73.898438 -88.628906 Z M 39.847656 -14.609375 C 29.582031 -14.609375 22.097656 -22.339844 22.097656 -32.480469 C 22.097656 -42.746094 29.582031 -50.351562 39.847656 -50.351562 C 50.109375 -50.351562 57.597656 -42.746094 57.597656 -32.480469 C 57.597656 -22.339844 50.109375 -14.609375 39.847656 -14.609375 Z M 39.847656 -14.609375 "/></g></g></g><g fill="#ffffff" fill-opacity="1"><g transform="translate(360.702724, 240.430311)"><g><path d="M 41.539062 -84.523438 L 9.660156 -84.523438 L 9.660156 0 L 41.539062 0 C 66.410156 0 84.402344 -17.75 84.402344 -42.261719 C 84.402344 -66.773438 66.410156 -84.523438 41.539062 -84.523438 Z M 41.175781 -16.90625 L 27.894531 -16.90625 L 27.894531 -67.5 L 41.175781 -67.5 C 55.664062 -67.5 65.6875 -57.234375 65.6875 -42.261719 C 65.6875 -27.53125 55.664062 -16.90625 41.175781 -16.90625 Z M 41.175781 -16.90625 "/></g></g></g><g fill="#ffffff" fill-opacity="1"><g transform="translate(450.119598, 240.430311)"><g><path d="M 8.453125 -73.898438 L 25.960938 -73.898438 L 25.960938 -90.199219 L 8.453125 -90.199219 Z M 8.453125 0 L 26.082031 0 L 26.082031 -65.203125 L 8.453125 -65.203125 Z M 8.453125 0 "/></g></g></g><g fill="#ffffff" fill-opacity="1"><g transform="translate(484.631366, 240.430311)"><g><path d="M 61.097656 -65.203125 L 58.199219 -58.683594 C 52.527344 -63.875 45.039062 -67.015625 36.585938 -67.015625 C 18.355469 -67.015625 4.105469 -52.527344 4.105469 -34.292969 C 4.105469 -15.9375 18.355469 -1.570312 36.585938 -1.570312 C 43.589844 -1.570312 49.988281 -3.742188 55.183594 -7.367188 L 55.183594 -4.949219 C 55.183594 4.589844 47.816406 10.382812 38.882812 10.382812 C 32.359375 10.382812 25.476562 7.367188 23.425781 1.449219 L 5.917969 1.449219 C 8.933594 16.300781 21.492188 25.355469 39.121094 25.355469 C 59.769531 25.355469 72.449219 12.921875 72.449219 -7.488281 L 72.449219 -65.082031 Z M 38.640625 -17.386719 C 28.980469 -17.386719 21.976562 -24.511719 21.976562 -34.171875 C 21.976562 -43.953125 28.980469 -51.078125 38.640625 -51.078125 C 48.300781 -51.078125 55.300781 -43.953125 55.300781 -34.171875 C 55.300781 -24.511719 48.300781 -17.386719 38.640625 -17.386719 Z M 38.640625 -17.386719 "/></g></g></g><g fill="#ffffff" fill-opacity="1"><g transform="translate(565.601224, 240.430311)"><g><path d="M 8.453125 -73.898438 L 25.960938 -73.898438 L 25.960938 -90.199219 L 8.453125 -90.199219 Z M 8.453125 0 L 26.082031 0 L 26.082031 -65.203125 L 8.453125 -65.203125 Z M 8.453125 0 "/></g></g></g><g fill="#ffffff" fill-opacity="1"><g transform="translate(600.112993, 240.430311)"><g><path d="M 40.328125 -15.695312 C 33.808594 -15.695312 30.1875 -19.320312 30.1875 -25.597656 L 30.1875 -50.957031 L 47.9375 -50.957031 L 47.9375 -65.203125 L 29.945312 -65.203125 L 29.945312 -82.109375 L 26.566406 -82.109375 L 0.84375 -54.820312 L 0.84375 -50.957031 L 12.558594 -50.957031 L 12.558594 -23.183594 C 12.558594 -8.816406 21.371094 0 35.742188 0 L 48.300781 0 L 48.300781 -15.695312 Z M 40.328125 -15.695312 "/></g></g></g><g fill="#ffffff" fill-opacity="1"><g transform="translate(652.001264, 240.430311)"><g><path d="M 61.582031 -65.203125 L 59.769531 -59.046875 C 54.09375 -63.996094 46.730469 -67.015625 38.277344 -67.015625 C 18.714844 -67.015625 4.105469 -52.285156 4.105469 -32.601562 C 4.105469 -12.921875 18.714844 1.933594 38.277344 1.933594 C 46.609375 1.933594 53.855469 -0.964844 59.40625 -5.917969 L 60.976562 0 L 74.742188 0 L 74.742188 -65.203125 Z M 39.726562 -14.730469 C 29.460938 -14.730469 21.976562 -22.460938 21.976562 -32.601562 C 21.976562 -42.867188 29.460938 -50.472656 39.726562 -50.472656 C 49.988281 -50.472656 57.476562 -42.867188 57.476562 -32.601562 C 57.476562 -22.339844 49.988281 -14.730469 39.726562 -14.730469 Z M 39.726562 -14.730469 "/></g></g></g><g fill="#ffffff" fill-opacity="1"><g transform="translate(735.263951, 240.430311)"><g><path d="M 8.453125 0 L 26.082031 0 L 26.082031 -88.628906 L 8.453125 -88.628906 Z M 8.453125 0 "/></g></g></g></svg>